<svg fill='#FFFF' id="Capa_1" enable-background="new 0 0 512 512" height="512" viewBox="0 0 512 512" width="512" xmlns="http://www.w3.org/2000/svg"><g><path d="m477.89 34.157c-22.032-22.027-51.324-34.157-82.481-34.157s-60.45 12.13-82.481 34.157l-102.042 102.02c6.843-.972 13.801-1.473 20.837-1.473 19.149 0 37.723 3.666 54.927 10.652l68.752-68.733c10.686-10.684 24.894-16.568 40.006-16.568s29.32 5.884 40.006 16.568c10.686 10.683 16.572 24.887 16.572 39.997s-5.885 29.314-16.571 39.998l-105.121 105.098c-10.686 10.684-24.894 16.568-40.006 16.568-15.113 0-29.11-6.094-39.795-16.778v-.001l-.001.001c-5.014-5.012-11.679-7.773-18.769-7.773s-13.756 2.76-18.769 7.773l-21.759 21.754c4.682 7.53 10.22 14.532 16.612 20.922 22.74 22.736 52.61 34.103 82.481 34.103 15.566 0 31.13-3.094 45.688-9.269h.001c13.376-5.674 25.903-13.947 36.792-24.834l105.121-105.098c45.48-45.47 45.48-119.456 0-164.927z"/><path d="m235.36 356.633-78.763 78.743c-10.686 10.684-24.894 16.568-40.006 16.568-15.113 0-29.32-5.883-40.006-16.567-22.06-22.054-22.06-57.941-.001-79.997l115.133-115.107c10.686-10.684 24.894-16.568 40.006-16.568s29.109 6.095 39.795 16.779l-.001.001h.001c5.013 5.011 11.679 7.772 18.769 7.772s13.755-2.76 18.769-7.773l21.756-21.751c-4.686-7.536-10.224-14.542-16.608-20.925-45.479-45.472-119.482-45.472-164.962 0l-115.132 115.108c-45.48 45.471-45.48 119.456 0 164.927 22.031 22.027 51.324 34.157 82.481 34.157s60.449-12.13 82.48-34.157l112.055-112.031c-6.843.972-13.802 1.473-20.839 1.473-19.148 0-37.722-3.666-54.927-10.652z"/></g></svg>